400.ufo
<glyph name="two" format="1">
  <advance width="1136"/>
  <unicode hex="0032"/>
  <outline>
    <contour>
      <point x="238" y="1205" type="line"/>
      <point x="305" y="1283"/>
      <point x="425" y="1339"/>
      <point x="582" y="1334" type="curve" smooth="yes"/>
      <point x="697" y="1331"/>
      <point x="848" y="1284"/>
      <point x="848" y="1058" type="curve" smooth="yes"/>
      <point x="848" y="890"/>
      <point x="784" y="825"/>
      <point x="638" y="682" type="curve" smooth="yes"/>
      <point x="98" y="151" type="line"/>
      <point x="124" y="0" type="line"/>
      <point x="980" y="0" type="line"/>
      <point x="989" y="142" type="line"/>
      <point x="234" y="142" type="line"/>
      <point x="253" y="112" type="line"/>
      <point x="736" y="573" type="line" smooth="yes"/>
      <point x="932" y="761"/>
      <point x="1008" y="855"/>
      <point x="1008" y="1064" type="curve" smooth="yes"/>
      <point x="1008" y="1375"/>
      <point x="759" y="1476"/>
      <point x="575" y="1476" type="curve" smooth="yes"/>
      <point x="330" y="1476"/>
      <point x="212" y="1389"/>
      <point x="138" y="1304" type="curve"/>
      <point x="219" y="1205" type="line"/>
    </contour>
  </outline>
</glyph>
<glyph name="C" format="1">
  <advance width="1391"/>
  <unicode hex="0043"/>
  <outline>
    <contour>
      <point x="396" y="1493"/>
      <point x="154" y="1209"/>
      <point x="154" y="729" type="curve" smooth="yes"/>
      <point x="154" y="249"/>
      <point x="396" y="-35"/>
      <point x="796" y="-19" type="curve" smooth="yes"/>
      <point x="995" y="-11"/>
      <point x="1214" y="81"/>
      <point x="1267" y="334" type="curve"/>
      <point x="1141" y="379" type="line"/>
      <point x="1126" y="379" type="line"/>
      <point x="1092" y="224"/>
      <point x="966" y="132"/>
      <point x="803" y="124" type="curve" smooth="yes"/>
      <point x="500" y="110"/>
      <point x="331" y="315"/>
      <point x="331" y="729" type="curve" smooth="yes"/>
      <point x="331" y="1143"/>
      <point x="500" y="1348"/>
      <point x="803" y="1334" type="curve" smooth="yes"/>
      <point x="966" y="1326"/>
      <point x="1092" y="1234"/>
      <point x="1126" y="1079" type="curve"/>
      <point x="1141" y="1079" type="line"/>
      <point x="1267" y="1124" type="line"/>
      <point x="1214" y="1377"/>
      <point x="995" y="1469"/>
      <point x="796" y="1477" type="curve" smooth="yes"/>
    </contour>
    <contour>
      <point x="782" y="1" type="move" name="bot"/>
    </contour>
    <contour>
      <point x="762" y="1456" type="move" name="top"/>
    </contour>
  </outline>
</glyph>
<glyph name="G" format="1">
  <advance width="1448"/>
  <unicode hex="0047"/>
  <outline>
    <contour>
      <point x="811" y="-20" type="curve" smooth="yes"/>
      <point x="1007" y="-20"/>
      <point x="1132" y="14"/>
      <point x="1279" y="72" type="curve"/>
      <point x="1279" y="764" type="line"/>
      <point x="828" y="764" type="line"/>
      <point x="819" y="646" type="line"/>
      <point x="1164" y="621" type="line"/>
      <point x="1116" y="676" type="line"/>
      <point x="1116" y="108" type="line"/>
      <point x="1176" y="183" type="line"/>
      <point x="1108" y="161"/>
      <point x="1021" y="123"/>
      <point x="842" y="123" type="curve" smooth="yes"/>
      <point x="457" y="123"/>
      <point x="324" y="369"/>
      <point x="324" y="738" type="curve" smooth="yes"/>
      <point x="324" y="1091"/>
      <point x="501" y="1334"/>
      <point x="843" y="1334" type="curve" smooth="yes"/>
      <point x="1026" y="1334"/>
      <point x="1123" y="1260"/>
      <point x="1187" y="1194" type="curve"/>
      <point x="1203" y="1194" type="line"/>
      <point x="1283" y="1298" type="line"/>
      <point x="1196" y="1400"/>
      <point x="1051" y="1476"/>
      <point x="840" y="1476" type="curve" smooth="yes"/>
      <point x="401" y="1476"/>
      <point x="147" y="1176"/>
      <point x="147" y="737" type="curve" smooth="yes"/>
      <point x="147" y="303"/>
      <point x="362" y="-20"/>
    </contour>
    <contour>
      <point x="810" y="1" type="move" name="bot"/>
    </contour>
    <contour>
      <point x="795" y="1456" type="move" name="top"/>
    </contour>
  </outline>
</glyph>
<glyph name="K" format="1">
  <advance width="1334"/>
  <unicode hex="004B"/>
  <outline>
    <contour>
      <point x="1274" y="1456" type="line"/>
      <point x="1082" y="1456" type="line"/>
      <point x="310" y="696" type="line"/>
      <point x="362" y="695" type="line"/>
      <point x="362" y="1456" type="line"/>
      <point x="186" y="1456" type="line"/>
      <point x="186" y="0" type="line"/>
      <point x="362" y="0" type="line"/>
      <point x="362" y="650" type="line"/>
      <point x="316" y="539" type="line"/>
      <point x="582" y="787" type="line"/>
      <point x="510" y="786" type="line"/>
      <point x="1112" y="0" type="line"/>
      <point x="1310" y="0" type="line"/>
      <point x="1310" y="20" type="line"/>
      <point x="627" y="896" type="line"/>
      <point x="627" y="800" type="line"/>
      <point x="1274" y="1434" type="line"/>
    </contour>
    <contour>
      <point x="663" y="0" type="move" name="bot"/>
    </contour>
    <contour>
      <point x="660" y="1456" type="move" name="top"/>
    </contour>
  </outline>
</glyph>
<glyph name="L" format="1">
  <advance width="1079"/>
  <unicode hex="004C"/>
  <outline>
    <contour>
      <point x="192" y="1456" type="line"/>
      <point x="192" y="0" type="line"/>
      <point x="1074" y="0" type="line"/>
      <point x="1078" y="137" type="line"/>
      <point x="298" y="137" type="line"/>
      <point x="368" y="72" type="line"/>
      <point x="368" y="1456" type="line"/>
    </contour>
    <contour>
      <point x="535" y="1082" type="move" name="caron.alt"/>
    </contour>
    <contour>
      <point x="312" y="740" type="move" name="mid"/>
    </contour>
    <contour>
      <point x="436" y="1456" type="move" name="top"/>
    </contour>
    <contour>
      <point x="629" y="0" type="move" name="bot"/>
    </contour>
  </outline>
</glyph>
<glyph name="O" format="1">
  <advance width="1590"/>
  <unicode hex="004F"/>
  <outline>
    <contour>
      <point x="147" y="721" type="curve" smooth="yes"/>
      <point x="147" y="269"/>
      <point x="351" y="-20"/>
      <point x="798" y="-20" type="curve" smooth="yes"/>
      <point x="1240" y="-20"/>
      <point x="1443" y="275"/>
      <point x="1443" y="718" type="curve" smooth="yes"/>
      <point x="1443" y="1181"/>
      <point x="1228" y="1476"/>
      <point x="799" y="1476" type="curve" smooth="yes"/>
      <point x="361" y="1476"/>
      <point x="147" y="1184"/>
    </contour>
    <contour>
      <point x="1267" y="720" type="curve" smooth="yes"/>
      <point x="1267" y="365"/>
      <point x="1146" y="122"/>
      <point x="796" y="122" type="curve" smooth="yes"/>
      <point x="446" y="122"/>
      <point x="324" y="365"/>
      <point x="324" y="720" type="curve" smooth="yes"/>
      <point x="324" y="1091"/>
      <point x="458" y="1334"/>
      <point x="798" y="1334" type="curve" smooth="yes"/>
      <point x="1139" y="1334"/>
      <point x="1267" y="1089"/>
    </contour>
    <contour>
      <point x="888" y="1" type="move" name="ogonek"/>
    </contour>
    <contour>
      <point x="799" y="1456" type="move" name="top"/>
    </contour>
    <contour>
      <point x="1350" y="720" type="move" name="OE"/>
    </contour>
  </outline>
</glyph>
<glyph name="X" format="1">
  <advance width="1278"/>
  <unicode hex="0058"/>
  <outline>
    <contour>
      <point x="1022" y="1456" type="line"/>
      <point x="631" y="853" type="line"/>
      <point x="541" y="750" type="line"/>
      <point x="52" y="0" type="line"/>
      <point x="231" y="0" type="line"/>
      <point x="633" y="604" type="line"/>
      <point x="719" y="710" type="line"/>
      <point x="1210" y="1456" type="line"/>
    </contour>
    <contour>
      <point x="53" y="1456" type="line"/>
      <point x="1018" y="0" type="line"/>
      <point x="1217" y="0" type="line"/>
      <point x="248" y="1456" type="line"/>
    </contour>
  </outline>
</glyph>
<glyph name="d" format="1">
  <advance width="1192"/>
  <unicode hex="0064"/>
  <outline>
    <contour>
      <point x="870" y="1540" type="line"/>
      <point x="870" y="1154" type="line"/>
      <point x="878" y="886" type="line"/>
      <point x="941" y="894" type="line"/>
      <point x="889" y="1012"/>
      <point x="771" y="1106"/>
      <point x="586" y="1103" type="curve" smooth="yes"/>
      <point x="291" y="1106"/>
      <point x="112" y="886"/>
      <point x="112" y="545" type="curve"/>
      <point x="112" y="207"/>
      <point x="278" y="-23"/>
      <point x="588" y="-20" type="curve" smooth="yes"/>
      <point x="712" y="-19"/>
      <point x="881" y="46"/>
      <point x="946" y="196" type="curve"/>
      <point x="884" y="173" type="line"/>
      <point x="900" y="0" type="line"/>
      <point x="1041" y="0" type="line"/>
      <point x="1041" y="1560" type="line"/>
    </contour>
    <contour>
      <point x="593" y="106" type="curve" smooth="yes"/>
      <point x="379" y="106"/>
      <point x="282" y="275"/>
      <point x="282" y="548" type="curve" smooth="yes"/>
      <point x="282" y="812"/>
      <point x="381" y="980"/>
      <point x="591" y="980" type="curve" smooth="yes"/>
      <point x="711" y="980"/>
      <point x="818" y="935"/>
      <point x="877" y="850" type="curve"/>
      <point x="877" y="222" type="line"/>
      <point x="810" y="142"/>
      <point x="710" y="106"/>
    </contour>
    <contour>
      <point x="963" y="1312" type="move" name="mid"/>
    </contour>
    <contour>
      <point x="536" y="1082" type="move" name="top"/>
    </contour>
    <contour>
      <point x="1144" y="1212" type="move" name="caron.alt"/>
    </contour>
  </outline>
</glyph>
<glyph name="k" format="1">
  <advance width="1079"/>
  <unicode hex="006B"/>
  <outline>
    <contour>
      <point x="156" y="0" type="line"/>
      <point x="320" y="0" type="line"/>
      <point x="320" y="438" type="line"/>
      <point x="291" y="372" type="line"/>
      <point x="475" y="529" type="line"/>
      <point x="423" y="538" type="line"/>
      <point x="869" y="0" type="line"/>
      <point x="1048" y="0" type="line"/>
      <point x="1048" y="24" type="line"/>
      <point x="536" y="621" type="line"/>
      <point x="532" y="556" type="line"/>
      <point x="1014" y="1058" type="line"/>
      <point x="1014" y="1082" type="line"/>
      <point x="825" y="1082" type="line"/>
      <point x="279" y="499" type="line"/>
      <point x="313" y="486" type="line"/>
      <point x="320" y="757" type="line"/>
      <point x="320" y="1560" type="line"/>
      <point x="156" y="1540" type="line"/>
    </contour>
    <contour>
      <point x="575" y="0" type="move" name="bot"/>
    </contour>
  </outline>
</glyph>
<glyph name="o" format="1">
  <advance width="1192"/>
  <unicode hex="006F"/>
  <outline>
    <contour>
      <point x="596" y="106" type="curve"/>
      <point x="375" y="106"/>
      <point x="282" y="294"/>
      <point x="282" y="541" type="curve" smooth="yes"/>
      <point x="282" y="794"/>
      <point x="376" y="980"/>
      <point x="596" y="980" type="curve"/>
      <point x="816" y="980"/>
      <point x="910" y="794"/>
      <point x="910" y="541" type="curve" smooth="yes"/>
      <point x="910" y="294"/>
      <point x="817" y="106"/>
    </contour>
    <contour>
      <point x="596" y="-20" type="curve"/>
      <point x="908" y="-20"/>
      <point x="1080" y="206"/>
      <point x="1080" y="542" type="curve" smooth="yes"/>
      <point x="1080" y="886"/>
      <point x="912" y="1106"/>
      <point x="596" y="1106" type="curve"/>
      <point x="280" y="1106"/>
      <point x="112" y="886"/>
      <point x="112" y="542" type="curve" smooth="yes"/>
      <point x="112" y="206"/>
      <point x="284" y="-20"/>
    </contour>
    <contour>
      <point x="713" y="1" type="move" name="ogonek"/>
    </contour>
    <contour>
      <point x="596" y="1082" type="move" name="top"/>
    </contour>
  </outline>
</glyph>
<glyph name="t" format="1">
  <advance width="789"/>
  <unicode hex="0074"/>
  <outline>
    <contour>
      <point x="576" y="-8" type="curve" smooth="yes"/>
      <point x="655" y="-8" type="line"/>
      <point x="663" y="109" type="line"/>
      <point x="569" y="113" type="line" smooth="yes"/>
      <point x="404" y="120"/>
      <point x="399" y="150"/>
      <point x="399" y="325" type="curve" smooth="yes"/>
      <point x="399" y="1020" type="line"/>
      <point x="366" y="980" type="line"/>
      <point x="678" y="980" type="line"/>
      <point x="678" y="1082" type="line"/>
      <point x="366" y="1082" type="line"/>
      <point x="399" y="1046" type="line"/>
      <point x="399" y="1382" type="line"/>
      <point x="266" y="1372" type="line"/>
      <point x="236" y="1051" type="line"/>
      <point x="269" y="1082" type="line"/>
      <point x="67" y="1073" type="line"/>
      <point x="63" y="980" type="line"/>
      <point x="265" y="980" type="line"/>
      <point x="235" y="1019" type="line"/>
      <point x="235" y="325" type="line" smooth="yes"/>
      <point x="235" y="69"/>
      <point x="277" y="-8"/>
    </contour>
    <contour>
      <point x="333" y="1202" type="move" name="caron.alt"/>
    </contour>
    <contour>
      <point x="364" y="621" type="move" name="mid"/>
    </contour>
    <contour>
      <point x="325" y="1384" type="move" name="top"/>
    </contour>
    <contour>
      <point x="472" y="0" type="move" name="bot"/>
    </contour>
  </outline>
</glyph>
<glyph name="dieresis" format="1">
  <advance width="880"/>
  <unicode hex="00A8"/>
  <outline>
    <contour>
      <point x="248" y="1311" type="curve" smooth="yes"/>
      <point x="300" y="1311"/>
      <point x="341" y="1351"/>
      <point x="341" y="1407" type="curve" smooth="yes"/>
      <point x="341" y="1464"/>
      <point x="300" y="1503"/>
      <point x="248" y="1503" type="curve" smooth="yes"/>
      <point x="194" y="1503"/>
      <point x="155" y="1464"/>
      <point x="155" y="1407" type="curve" smooth="yes"/>
      <point x="155" y="1351"/>
      <point x="194" y="1311"/>
    </contour>
    <contour>
      <point x="610" y="1311" type="curve" smooth="yes"/>
      <point x="663" y="1311"/>
      <point x="703" y="1351"/>
      <point x="703" y="1407" type="curve" smooth="yes"/>
      <point x="703" y="1464"/>
      <point x="663" y="1503"/>
      <point x="610" y="1503" type="curve" smooth="yes"/>
      <point x="557" y="1503"/>
      <point x="518" y="1464"/>
      <point x="518" y="1407" type="curve" smooth="yes"/>
      <point x="518" y="1351"/>
      <point x="557" y="1311"/>
    </contour>
    <contour>
      <point x="436" y="1082" type="move" name="_top"/>
    </contour>
  </outline>
</glyph>
<glyph name="macron" format="1">
  <advance width="908"/>
  <unicode hex="00AF"/>
  <outline>
    <contour>
      <point x="163" y="1261" type="line"/>
      <point x="748" y="1261" type="line"/>
      <point x="748" y="1383" type="line"/>
      <point x="163" y="1383" type="line"/>
    </contour>
    <contour>
      <point x="464" y="1319" type="move" name="_mid"/>
    </contour>
    <contour>
      <point x="458" y="1082" type="move" name="_top"/>
    </contour>
  </outline>
</glyph>
<glyph name="acute" format="1">
  <advance width="681"/>
  <unicode hex="00B4"/>
  <outline>
    <contour>
      <point x="171" y="1224" type="line"/>
      <point x="268" y="1224" type="line"/>
      <point x="525" y="1636" type="line"/>
      <point x="354" y="1636" type="line"/>
    </contour>
    <contour>
      <point x="237" y="1082" type="move" name="_top"/>
    </contour>
  </outline>
</glyph>
<glyph name="cedilla" format="1">
  <advance width="766"/>
  <unicode hex="00B8"/>
  <outline>
    <contour>
      <point x="359" y="-398" type="curve" smooth="yes"/>
      <point x="504" y="-398"/>
      <point x="607" y="-323"/>
      <point x="607" y="-210" type="curve" smooth="yes"/>
      <point x="607" y="-67"/>
      <point x="460" y="-27"/>
      <point x="343" y="-71" type="curve"/>
      <point x="343" y="-145" type="line"/>
      <point x="423" y="-136"/>
      <point x="472" y="-162"/>
      <point x="467" y="-218" type="curve" smooth="yes"/>
      <point x="460" y="-293"/>
      <point x="368" y="-322"/>
      <point x="242" y="-275" type="curve"/>
      <point x="212" y="-367" type="line"/>
      <point x="255" y="-387"/>
      <point x="304" y="-398" name="inserted"/>
    </contour>
    <contour>
      <point x="442" y="0" type="move" name="_bot"/>
    </contour>
  </outline>
</glyph>
<glyph name="breve" format="1">
  <advance width="823"/>
  <unicode hex="02D8"/>
  <outline>
    <contour>
      <point x="430" y="1194" type="curve" smooth="yes"/>
      <point x="555" y="1194"/>
      <point x="665" y="1263"/>
      <point x="665" y="1433" type="curve"/>
      <point x="563" y="1433" type="line"/>
      <point x="563" y="1333"/>
      <point x="498" y="1294"/>
      <point x="430" y="1294" type="curve" smooth="yes"/>
      <point x="362" y="1294"/>
      <point x="301" y="1333"/>
      <point x="301" y="1433" type="curve"/>
      <point x="199" y="1433" type="line"/>
      <point x="199" y="1263"/>
      <point x="306" y="1194"/>
    </contour>
    <contour>
      <point x="432" y="1082" type="move" name="_top"/>
    </contour>
  </outline>
</glyph>
<glyph name="ring" format="1">
  <advance width="766"/>
  <unicode hex="02DA"/>
  <outline>
    <contour>
      <point x="402" y="1282" type="curve" smooth="yes"/>
      <point x="346" y="1282"/>
      <point x="306" y="1328"/>
      <point x="306" y="1384" type="curve" smooth="yes"/>
      <point x="306" y="1440"/>
      <point x="347" y="1486"/>
      <point x="402" y="1486" type="curve" smooth="yes"/>
      <point x="458" y="1486"/>
      <point x="498" y="1440"/>
      <point x="498" y="1384" type="curve" smooth="yes"/>
      <point x="498" y="1328"/>
      <point x="458" y="1282"/>
    </contour>
    <contour>
      <point x="402" y="1205" type="curve" smooth="yes"/>
      <point x="508" y="1205"/>
      <point x="585" y="1285"/>
      <point x="585" y="1385" type="curve" smooth="yes"/>
      <point x="585" y="1486"/>
      <point x="509" y="1566"/>
      <point x="402" y="1566" type="curve" smooth="yes"/>
      <point x="295" y="1566"/>
      <point x="218" y="1486"/>
      <point x="218" y="1385" type="curve" smooth="yes"/>
      <point x="218" y="1285"/>
      <point x="296" y="1205"/>
    </contour>
    <contour>
      <point x="407" y="1082" type="move" name="_top"/>
    </contour>
  </outline>
</glyph>
<glyph name="uni0307" format="1">
  <advance width="596"/>
  <unicode hex="0307"/>
  <outline>
    <contour>
      <point x="232" y="1372" type="curve" smooth="yes"/>
      <point x="232" y="1304"/>
      <point x="258" y="1265"/>
      <point x="328" y="1265" type="curve" smooth="yes"/>
      <point x="396" y="1265"/>
      <point x="423" y="1304"/>
      <point x="423" y="1372" type="curve" smooth="yes"/>
      <point x="423" y="1438"/>
      <point x="396" y="1476"/>
      <point x="328" y="1476" type="curve" smooth="yes"/>
      <point x="258" y="1476"/>
      <point x="232" y="1438"/>
    </contour>
    <contour>
      <point x="322" y="1082" type="move" name="_top"/>
    </contour>
  </outline>
</glyph>
<glyph name="breveinvertedcomb" format="1">
  <advance width="880"/>
  <unicode hex="0311"/>
  <outline>
    <contour>
      <point x="204" y="1195" type="curve"/>
      <point x="304" y="1195" type="line"/>
      <point x="304" y="1294"/>
      <point x="360" y="1342"/>
      <point x="434" y="1342" type="curve" smooth="yes"/>
      <point x="507" y="1342"/>
      <point x="566" y="1294"/>
      <point x="566" y="1195" type="curve"/>
      <point x="669" y="1195" type="line"/>
      <point x="669" y="1366"/>
      <point x="548" y="1438"/>
      <point x="433" y="1438" type="curve" smooth="yes"/>
      <point x="319" y="1438"/>
      <point x="204" y="1367"/>
    </contour>
    <contour>
      <point x="435" y="1082" type="move" name="_top"/>
    </contour>
  </outline>
</glyph>
<glyph name="commaturnedabovecomb" format="1">
  <advance width="600"/>
  <outline>
    <contour>
      <point x="220" y="1225" type="line"/>
      <point x="393" y="1225" type="line"/>
      <point x="434" y="1760" type="line"/>
      <point x="337" y="1760" type="line"/>
      <point x="220" y="1308" type="line"/>
    </contour>
    <contour>
      <point x="313" y="1082" type="move" name="_top"/>
    </contour>
  </outline>
</glyph>
